<mxfile host="65bd71144e">
    <diagram id="QiFy3sZd8ptobCvh17Az" name="Page-1">
        <mxGraphModel dx="1033" dy="350" grid="1" gridSize="10" guides="1" tooltips="1" connect="1" arrows="1" fold="1" page="1" pageScale="1" pageWidth="850" pageHeight="1100" math="0" shadow="0">
            <root>
                <mxCell id="0"/>
                <mxCell id="1" parent="0"/>
                <mxCell id="2" value="Human&lt;br&gt;&lt;br&gt;instance attributes: age, height, name, weight&lt;br&gt;&lt;br&gt;class attributes: population, living, num_in_space&lt;br&gt;&lt;br&gt;instance methods: is_legal, say_hello, tall_enough&lt;br&gt;&lt;br&gt;class methods: add_person, delete_person, go_to_space" style="whiteSpace=wrap;html=1;" parent="1" vertex="1">
                    <mxGeometry x="200" y="50" width="360" height="250" as="geometry"/>
                </mxCell>
            </root>
        </mxGraphModel>
    </diagram>
</mxfile>